<svg width="416" height="413" viewBox="0 0 416 413" fill="none" xmlns="http://www.w3.org/2000/svg">
<path d="M309.922 228.185C335.244 214.846 341.307 198.012 333.532 193.233C322.048 186.813 290.448 198.298 294.086 229.826C292.517 230.753 289.378 232.465 289.378 232.465L291.447 238.813C291.447 238.813 295.869 236.174 297.011 235.389C300.72 238.385 302.646 240.026 308.352 240.168C320.55 240.454 331.035 226.901 331.035 226.901L327.968 222.122C328.039 222.122 314.629 235.033 309.922 228.185ZM313.274 208.854C316.912 202.435 322.761 197.442 325.686 199.439C328.539 201.436 322.761 211.565 309.137 222.407C308.566 221.409 309.636 215.274 313.274 208.854ZM80.5231 240.168C78.6685 240.168 75.8866 239.455 73.8894 237.387C67.8263 231.038 73.5327 209.568 74.7453 204.931C74.888 204.503 74.5313 204.075 74.1034 204.075C73.818 204.075 73.604 204.218 73.4614 204.432C70.8935 209.639 56.9841 240.168 44.7152 240.168C44.5013 240.168 44.2159 240.168 44.0019 240.168C32.0898 239.027 33.659 222.621 37.3682 212.635H56.5561C54.9868 216.915 54.4875 219.625 54.4875 221.052C54.5588 222.051 55.4148 222.621 56.1994 222.193C58.1967 221.123 61.4779 216.843 64.3311 211.922C69.4669 202.863 76.1719 189.31 87.6561 155H108.699C102.493 174.117 97.4284 191.378 94.6465 211.137C94.5038 212.136 95.6451 212.92 96.5724 212.136C102.564 206.501 124.463 159.137 125.818 155H146.932C146.932 155 126.175 212.421 127.886 222.051C128.172 223.834 130.098 224.048 131.025 222.835C132.238 221.337 133.95 219.126 135.162 217.771L138.158 220.767C132.166 228.185 122.394 241.524 112.693 239.954C111.195 239.669 109.697 238.813 108.627 237.743C98.4983 228.97 112.622 199.581 115.118 192.662C115.689 191.164 116.188 189.738 116.545 188.882C116.688 188.454 116.402 187.955 115.903 187.955C115.618 187.955 115.404 188.097 115.261 188.311C114.762 189.381 113.478 192.163 112.978 193.09C106.773 206.001 92.3639 240.168 80.5231 240.168ZM278.821 169.694C269.477 169.48 263.485 175.258 263.485 175.258L263.628 180.893C263.628 180.893 270.333 174.117 277.324 177.041C281.889 178.896 285.313 184.245 282.745 193.59C282.602 194.16 282.317 195.23 282.174 195.801C280.177 191.521 272.758 188.24 262.415 196.086C254.854 201.793 252.929 207.856 251.431 212.778C249.291 219.982 249.433 227.757 251.074 232.393C252.144 235.461 254.997 238.884 258.992 240.382C276.111 246.873 289.592 220.41 293.73 201.365C296.369 189.31 298.366 170.051 278.821 169.694ZM269.62 227.614C267.694 228.898 264.413 229.469 263.913 223.548C263.271 215.06 269.477 205.074 271.332 202.72C274.542 198.797 278.893 198.583 278.821 204.717C278.75 211.85 274.399 224.476 269.62 227.614ZM217.977 164.772C207.848 161.277 172.04 172.619 160.27 212.207C158.844 212.635 151.925 214.347 151.925 214.347L148.929 222.479L159.557 219.197C159.557 219.197 158.416 239.526 176.248 240.168C190.301 239.669 197.648 218.983 193.154 204.931C192.298 205.359 181.028 210.78 181.028 210.78C181.028 210.78 183.381 224.547 178.388 227.686C177.604 228.185 176.605 228.114 175.963 227.186C174.536 225.189 173.609 219.911 175.178 212.92C200.929 199.51 218.547 175.971 219.617 167.839C219.974 165.771 218.333 164.915 217.977 164.772ZM185.949 199.795C181.17 203.433 177.461 205.288 177.461 205.288C177.461 205.288 178.816 202.149 179.815 200.366C182.597 195.73 195.864 177.826 206.992 174.545C207.42 174.402 207.776 174.759 207.705 175.186C207.705 179.11 193.582 194.018 185.949 199.795ZM239.019 229.041C238.876 229.612 239.447 229.897 239.804 229.683C241.516 228.613 243.798 226.758 243.798 226.758L245.225 231.109C244.369 232.037 237.521 237.458 233.241 239.455C228.605 241.595 224.396 238.742 223.754 235.318C223.112 231.323 225.11 226.116 225.11 226.116C225.11 226.116 217.763 234.533 210.273 238.599C208.204 239.74 206.635 240.168 205.351 240.168C200.287 240.026 198.717 235.175 199.288 232.536C199.93 229.398 206.778 208.355 207.634 204.931C207.705 204.575 207.348 204.218 206.92 204.289C204.852 204.86 199.431 208.426 199.431 208.426V202.577C199.431 202.577 215.123 191.878 219.047 190.737C222.684 189.738 225.823 191.806 224.896 195.944C224.468 198.797 214.268 223.548 214.268 226.687C214.268 227.258 214.767 227.329 214.909 227.258C217.834 226.402 223.184 221.837 227.25 215.345C231.101 209.282 233.669 201.65 236.879 192.163H250.503C250.503 192.234 240.16 223.834 239.019 229.041ZM381.323 199.367C381.609 203.79 377.4 227.115 360.281 236.459C355.216 239.241 351.792 240.311 348.725 240.168C341.45 239.954 338.026 234.034 337.241 232.108C328.895 211.422 353.29 192.234 353.29 192.234H367.414C367.414 192.234 345.872 209.425 348.868 224.69C351.222 233.963 359.853 229.469 364.632 218.983C365.559 216.915 371.337 203.148 367.699 202.934C364.489 202.72 360.209 209.496 360.209 209.496L357.214 204.931C359.567 201.935 366.13 194.089 373.477 191.592C374.689 191.236 381.252 189.881 381.323 199.367ZM144.578 228.898C147.716 228.898 150.213 231.395 150.213 234.533C150.213 237.672 147.716 240.168 144.578 240.168C141.439 240.168 138.943 237.672 138.943 234.533C138.943 231.395 141.511 228.898 144.578 228.898Z" fill="#E31235"/>
</svg>
