<svg width="236" height="92" viewBox="0 0 236 92" fill="none" xmlns="http://www.w3.org/2000/svg">
<rect width="236" height="64" rx="5" fill="url(#paint0_linear)"/>
<path d="M16.5595 20.984H17.1035L19.6315 29.752L15.9515 43H9.5515L16.5595 20.984ZM23.7595 39.096H18.4155L19.7595 34.168H22.3195L18.5435 20.984H24.3995L31.4075 43H24.8795L23.7595 39.096ZM38.3363 20.984H44.7363V43H38.3363V20.984ZM47.3603 35.512H46.0803V30.616H47.1683C47.8296 30.616 48.3309 30.5947 48.6723 30.552C49.0136 30.488 49.2803 30.3813 49.4723 30.232C49.6429 30.0827 49.7603 29.8587 49.8243 29.56C49.8883 29.2613 49.9203 28.824 49.9203 28.248C49.9203 27.672 49.8883 27.2347 49.8243 26.936C49.7603 26.616 49.6429 26.3813 49.4723 26.232C49.3016 26.0827 49.0456 25.9867 48.7043 25.944C48.3843 25.9013 47.8723 25.88 47.1683 25.88H46.0803V20.984H49.3763C50.8909 20.984 52.1176 21.1333 53.0563 21.432C53.9949 21.7307 54.7203 22.1893 55.2323 22.808C55.7016 23.384 56.0109 24.0987 56.1603 24.952C56.3309 25.8053 56.4163 26.904 56.4163 28.248C56.4163 29.976 56.2563 31.3093 55.9363 32.248C55.4883 33.4427 54.6989 34.2853 53.5683 34.776L56.8963 43H50.1763L47.3603 35.512ZM62.9068 20.984H80.9228V26.104H62.9068V20.984ZM68.6988 27.384H75.0988V43H68.6988V27.384ZM100.736 20.984H107.136V43H100.736V20.984ZM113.088 34.52H108.48V29.4H113.088V20.984H119.488V43H113.088V34.52ZM140.667 31.992C140.667 30.136 140.656 28.92 140.635 28.344C140.592 27.4693 140.475 26.84 140.283 26.456C140.091 26.0507 139.781 25.8053 139.355 25.72C138.928 25.656 138.32 25.624 137.531 25.624C136.613 25.624 136.016 25.6667 135.739 25.752V20.76C135.931 20.7387 136.219 20.728 136.603 20.728H137.531C139.92 20.728 141.765 20.92 143.067 21.304C144.389 21.6667 145.349 22.2747 145.947 23.128C146.501 23.9173 146.843 24.952 146.971 26.232C147.12 27.512 147.195 29.432 147.195 31.992C147.195 34.232 147.141 35.96 147.035 37.176C146.949 38.3707 146.715 39.3627 146.331 40.152C145.904 41.048 145.243 41.7307 144.347 42.2C143.472 42.6693 142.245 42.9787 140.667 43.128V31.992ZM137.531 43.256C134.416 43.256 132.176 42.9147 130.811 42.232C130.107 41.8907 129.552 41.432 129.147 40.856C128.741 40.28 128.443 39.5653 128.251 38.712C128.08 37.9653 127.973 37.112 127.931 36.152C127.888 35.1707 127.867 33.784 127.867 31.992C127.867 29.752 127.909 28.0347 127.995 26.84C128.101 25.6453 128.347 24.6427 128.731 23.832C129.157 22.9573 129.808 22.2853 130.683 21.816C131.557 21.3467 132.795 21.0267 134.395 20.856V31.992C134.395 33.2507 134.416 34.456 134.459 35.608C134.501 36.4827 134.608 37.1227 134.779 37.528C134.971 37.9333 135.28 38.168 135.707 38.232C136.069 38.3173 136.677 38.36 137.531 38.36C138.405 38.36 139.003 38.328 139.323 38.264V43.224C139.131 43.2453 138.843 43.256 138.459 43.256H137.531ZM164.546 43.256C162.306 43.256 160.578 43.0747 159.362 42.712C158.146 42.3493 157.25 41.7627 156.674 40.952C156.141 40.2053 155.81 39.256 155.682 38.104C155.554 36.952 155.49 35.2347 155.49 32.952V20.984H161.89V34.232C161.89 35.0213 161.912 35.7787 161.954 36.504C161.997 37.08 162.093 37.496 162.242 37.752C162.392 38.008 162.648 38.168 163.01 38.232C163.33 38.3173 163.842 38.36 164.546 38.36H165.282C165.453 38.36 165.645 38.3387 165.858 38.296V43.224C165.709 43.2453 165.496 43.256 165.218 43.256H164.546ZM167.202 20.984H173.602V32.952C173.602 35.0427 173.56 36.6213 173.474 37.688C173.389 38.7547 173.154 39.6507 172.77 40.376C172.344 41.208 171.693 41.848 170.818 42.296C169.944 42.744 168.738 43.032 167.202 43.16V20.984ZM197.648 26.04C196.944 25.9547 195.707 25.8373 193.936 25.688C192.955 25.6453 192.165 25.624 191.568 25.624C190.8 25.624 190.075 25.6453 189.392 25.688V20.728H190.192C191.941 20.728 193.755 20.8453 195.632 21.08C196.229 21.1653 196.901 21.2827 197.648 21.432V26.04ZM192.368 36.504C192.368 36.056 192.336 35.736 192.272 35.544C192.208 35.3307 192.101 35.192 191.952 35.128C191.803 35.0427 191.547 34.9787 191.184 34.936L187.248 34.456C184.923 34.2 183.355 33.4427 182.544 32.184C182.181 31.6507 181.936 31 181.808 30.232C181.68 29.464 181.616 28.5253 181.616 27.416C181.616 25.048 182.224 23.3413 183.44 22.296C184.421 21.4427 185.957 20.9413 188.048 20.792V27.224C188.048 27.5013 188.059 27.736 188.08 27.928C188.101 28.12 188.144 28.2693 188.208 28.376C188.272 28.504 188.379 28.6 188.528 28.664C188.677 28.7067 188.901 28.7387 189.2 28.76L193.616 29.304C194.533 29.432 195.28 29.592 195.856 29.784C196.432 29.976 196.923 30.2747 197.328 30.68C198.288 31.6827 198.768 33.464 198.768 36.024C198.768 38.7333 198.171 40.632 196.976 41.72C196.443 42.2107 195.792 42.5733 195.024 42.808C194.277 43.0213 193.392 43.16 192.368 43.224V36.504ZM190.672 43.256C188.539 43.256 186.555 43.16 184.72 42.968C183.632 42.8613 182.811 42.7547 182.256 42.648V37.976C183.515 38.0827 184.955 38.1893 186.576 38.296C187.6 38.3387 188.325 38.36 188.752 38.36C189.904 38.36 190.661 38.328 191.024 38.264V43.256H190.672ZM206.874 20.984H213.274V43H206.874V20.984ZM214.618 20.984H222.746V25.88H214.618V20.984ZM214.618 29.432H221.242V34.328H214.618V29.432ZM214.618 38.104H222.746V43H214.618V38.104Z" fill="white"/>
<path d="M87.252 72.156V71.616H90.564L95.748 82.632L95.154 84H92.814L87.252 72.156ZM97.422 78.798H97.35L96.144 81.714L94.596 78.402L97.422 71.616H100.842V84H97.422V78.798ZM87.252 73.938L90.564 80.994V84H87.252V73.938ZM105.878 71.616H109.478V84H105.878V71.616ZM110.234 71.616H114.806V74.37H110.234V71.616ZM110.234 76.368H113.96V79.122H110.234V76.368ZM110.234 81.246H114.806V84H110.234V81.246ZM119.67 71.616H123.27V84H119.67V71.616ZM124.026 81.246H124.17C124.758 81.246 125.172 81.222 125.412 81.174C125.664 81.114 125.85 80.982 125.97 80.778C126.102 80.562 126.174 80.22 126.186 79.752C126.21 79.152 126.222 78.504 126.222 77.808C126.222 77.124 126.21 76.47 126.186 75.846C126.162 75.378 126.084 75.036 125.952 74.82C125.832 74.604 125.634 74.472 125.358 74.424C125.082 74.388 124.686 74.37 124.17 74.37H124.026V71.616H124.17C125.13 71.616 125.928 71.658 126.564 71.742C127.212 71.826 127.746 71.958 128.166 72.138C128.574 72.318 128.898 72.564 129.138 72.876C129.378 73.188 129.552 73.578 129.66 74.046C129.756 74.466 129.816 74.964 129.84 75.54C129.876 76.104 129.894 76.86 129.894 77.808C129.894 78.768 129.876 79.53 129.84 80.094C129.816 80.658 129.756 81.15 129.66 81.57C129.552 82.038 129.378 82.428 129.138 82.74C128.898 83.052 128.574 83.298 128.166 83.478C127.746 83.658 127.212 83.79 126.564 83.874C125.928 83.958 125.13 84 124.17 84H124.026V81.246ZM134.604 71.616H138.204V84H134.604V71.616ZM146.053 71.616H146.359L147.781 76.548L145.711 84H142.111L146.053 71.616ZM150.103 81.804H147.097L147.853 79.032H149.293L147.169 71.616H150.463L154.405 84H150.733L150.103 81.804ZM169.783 71.508C170.263 71.484 170.659 71.472 170.971 71.472C172.051 71.472 173.041 71.544 173.941 71.688C174.397 71.736 174.835 71.808 175.255 71.904V74.478C174.751 74.43 174.373 74.388 174.121 74.352C173.917 74.34 173.587 74.31 173.131 74.262C172.675 74.238 172.375 74.226 172.231 74.226C171.499 74.226 170.959 74.244 170.611 74.28C170.275 74.304 169.999 74.376 169.783 74.496V71.508ZM170.971 84.144C169.771 84.144 168.811 84.054 168.091 83.874C167.383 83.694 166.831 83.376 166.435 82.92C166.039 82.464 165.757 81.834 165.589 81.03C165.433 80.226 165.355 79.152 165.355 77.808C165.355 76.668 165.409 75.732 165.517 75C165.625 74.268 165.811 73.668 166.075 73.2C166.351 72.72 166.723 72.354 167.191 72.102C167.659 71.85 168.271 71.676 169.027 71.58V77.808C169.027 78.66 169.051 79.314 169.099 79.77C169.147 80.214 169.237 80.556 169.369 80.796C169.513 81.048 169.717 81.222 169.981 81.318C170.257 81.414 170.647 81.462 171.151 81.462V84.144H170.971ZM171.907 79.248H170.629V76.638H175.309V83.694C174.745 83.826 174.043 83.928 173.203 84C172.795 84.06 172.363 84.096 171.907 84.108V79.248ZM180.261 71.616H183.861V84H180.261V71.616ZM185.337 79.788H184.617V77.034H185.229C185.601 77.034 185.883 77.022 186.075 76.998C186.267 76.962 186.417 76.902 186.525 76.818C186.621 76.734 186.687 76.608 186.723 76.44C186.759 76.272 186.777 76.026 186.777 75.702C186.777 75.378 186.759 75.132 186.723 74.964C186.687 74.784 186.621 74.652 186.525 74.568C186.429 74.484 186.285 74.43 186.093 74.406C185.913 74.382 185.625 74.37 185.229 74.37H184.617V71.616H186.471C187.323 71.616 188.013 71.7 188.541 71.868C189.069 72.036 189.477 72.294 189.765 72.642C190.029 72.966 190.203 73.368 190.287 73.848C190.383 74.328 190.431 74.946 190.431 75.702C190.431 76.674 190.341 77.424 190.161 77.952C189.909 78.624 189.465 79.098 188.829 79.374L190.701 84H186.921L185.337 79.788ZM201.966 77.808C201.966 76.764 201.96 76.08 201.948 75.756C201.924 75.264 201.858 74.91 201.75 74.694C201.642 74.466 201.468 74.328 201.228 74.28C200.988 74.244 200.646 74.226 200.202 74.226C199.686 74.226 199.35 74.25 199.194 74.298V71.49C199.302 71.478 199.464 71.472 199.68 71.472H200.202C201.546 71.472 202.584 71.58 203.316 71.796C204.06 72 204.6 72.342 204.936 72.822C205.248 73.266 205.44 73.848 205.512 74.568C205.596 75.288 205.638 76.368 205.638 77.808C205.638 79.068 205.608 80.04 205.548 80.724C205.5 81.396 205.368 81.954 205.152 82.398C204.912 82.902 204.54 83.286 204.036 83.55C203.544 83.814 202.854 83.988 201.966 84.072V77.808ZM200.202 84.144C198.45 84.144 197.19 83.952 196.422 83.568C196.026 83.376 195.714 83.118 195.486 82.794C195.258 82.47 195.09 82.068 194.982 81.588C194.886 81.168 194.826 80.688 194.802 80.148C194.778 79.596 194.766 78.816 194.766 77.808C194.766 76.548 194.79 75.582 194.838 74.91C194.898 74.238 195.036 73.674 195.252 73.218C195.492 72.726 195.858 72.348 196.35 72.084C196.842 71.82 197.538 71.64 198.438 71.544V77.808C198.438 78.516 198.45 79.194 198.474 79.842C198.498 80.334 198.558 80.694 198.654 80.922C198.762 81.15 198.936 81.282 199.176 81.318C199.38 81.366 199.722 81.39 200.202 81.39C200.694 81.39 201.03 81.372 201.21 81.336V84.126C201.102 84.138 200.94 84.144 200.724 84.144H200.202ZM215.399 84.144C214.139 84.144 213.167 84.042 212.483 83.838C211.799 83.634 211.295 83.304 210.971 82.848C210.671 82.428 210.485 81.894 210.413 81.246C210.341 80.598 210.305 79.632 210.305 78.348V71.616H213.905V79.068C213.905 79.512 213.917 79.938 213.941 80.346C213.965 80.67 214.019 80.904 214.103 81.048C214.187 81.192 214.331 81.282 214.535 81.318C214.715 81.366 215.003 81.39 215.399 81.39H215.813C215.909 81.39 216.017 81.378 216.137 81.354V84.126C216.053 84.138 215.933 84.144 215.777 84.144H215.399ZM216.893 71.616H220.493V78.348C220.493 79.524 220.469 80.412 220.421 81.012C220.373 81.612 220.241 82.116 220.025 82.524C219.785 82.992 219.419 83.352 218.927 83.604C218.435 83.856 217.757 84.018 216.893 84.09V71.616ZM225.486 71.616H229.086V84H225.486V71.616ZM229.842 77.394H230.274C230.658 77.394 230.94 77.382 231.12 77.358C231.312 77.322 231.462 77.25 231.57 77.142C231.678 77.046 231.744 76.908 231.768 76.728C231.804 76.536 231.822 76.254 231.822 75.882C231.822 75.51 231.804 75.234 231.768 75.054C231.744 74.862 231.678 74.712 231.57 74.604C231.462 74.508 231.312 74.448 231.12 74.424C230.928 74.388 230.646 74.37 230.274 74.37H229.842V71.616H231.336C232.224 71.616 232.944 71.706 233.496 71.886C234.06 72.054 234.486 72.318 234.774 72.678C235.05 73.014 235.236 73.44 235.332 73.956C235.428 74.46 235.476 75.102 235.476 75.882C235.476 76.626 235.428 77.244 235.332 77.736C235.248 78.228 235.074 78.642 234.81 78.978C234.51 79.362 234.078 79.656 233.514 79.86C232.962 80.052 232.236 80.148 231.336 80.148H229.842V77.394Z" fill="white"/>
<defs>
<linearGradient id="paint0_linear" x1="236" y1="64" x2="7.57686e-09" y2="-2.79397e-08" gradientUnits="userSpaceOnUse">
<stop stop-color="#EB5757"/>
<stop offset="0.774878" stop-color="#896BB3"/>
</linearGradient>
</defs>
</svg>
