<svg width="64" height="64" viewBox="0 0 64 64" fill="none" xmlns="http://www.w3.org/2000/svg">
<rect x="1" y="1" width="62" height="62" rx="4" fill="url(#paint0_linear)"/>
<path d="M14.2345 20.984H14.7785L17.3065 29.752L13.6265 43H7.2265L14.2345 20.984ZM21.4345 39.096H16.0905L17.4345 34.168H19.9945L16.2185 20.984H22.0745L29.0825 43H22.5545L21.4345 39.096ZM36.0112 20.984H42.4113V43H36.0112V20.984ZM48.3633 34.52H43.7552V29.4H48.3633V20.984H54.7633V43H48.3633V34.52Z" fill="white"/>
<rect x="1" y="1" width="62" height="62" rx="4" stroke="url(#paint1_linear)" stroke-width="2"/>
<defs>
<linearGradient id="paint0_linear" x1="32" y1="0" x2="32" y2="64" gradientUnits="userSpaceOnUse">
<stop stop-color="#2D9CDB"/>
<stop offset="1" stop-color="#896BB3"/>
</linearGradient>
<linearGradient id="paint1_linear" x1="32" y1="0" x2="32" y2="64" gradientUnits="userSpaceOnUse">
<stop stop-color="#2D9CDB"/>
<stop offset="1" stop-color="#896BB3"/>
</linearGradient>
</defs>
</svg>
